<svg width="178" height="36" viewBox="0 0 178 36" fill="none" xmlns="http://www.w3.org/2000/svg">
<g id="xbox-one-3 logo" clip-path="url(#clip0_21_311)">
<path id="Vector" d="M113.88 28.4246L107.086 19.2734L100.299 28.4246H97.5026L105.671 17.3681L98.211 7.31787H101.007L107.086 15.5145L113.164 7.31787H115.958L108.504 17.3662L116.674 28.4246H113.88ZM60.9359 28.4209L52.7584 17.3662L60.2183 7.31787H57.4222L51.3418 15.5164L45.2669 7.31787H42.4783L49.9344 17.3662L41.7588 28.4209H44.5586L51.3455 19.2734L58.138 28.4209H60.9359Z" fill="#FBF503"/>
<path id="Vector_2" d="M76.4838 18.1655C76.0625 17.8091 75.5932 17.5128 75.0895 17.285C75.8625 16.8774 76.5089 16.2685 76.9595 15.5238C77.4101 14.7791 77.6478 13.9267 77.647 13.0581C77.647 11.7077 77.1456 7.31615 70.7333 7.31615H62.0972V16.4155H59.221C58.8482 16.8984 58.0001 18.0582 57.6776 18.5336H62.0972V28.4211L70.7352 28.4229C75.4139 28.4229 78.3199 26.0662 78.3199 22.2611C78.3199 20.5999 77.688 19.1885 76.4838 18.1655ZM64.4851 9.51931H70.7352C72.4258 9.51931 75.2592 9.93738 75.2592 12.8731C75.2592 15.0929 73.6095 16.4155 70.7352 16.4155H64.4851V9.51931ZM70.7333 26.2216H64.4832V18.5392H70.7333C73.1025 18.5392 75.9377 19.1885 75.9377 22.2148C75.9377 25.6999 72.6775 26.2216 70.7333 26.2216ZM89.5544 6.83149C83.5802 6.83149 79.4048 11.3655 79.4048 17.8584C79.4048 24.3606 83.5802 28.8909 89.5544 28.8909C95.523 28.8909 99.6873 24.3606 99.6873 17.8584C99.6873 11.3655 95.523 6.83149 89.5544 6.83149ZM89.5544 26.6581C85.0024 26.6581 81.8131 23.038 81.8131 17.8584C81.8131 12.6789 85.0024 9.06055 89.5544 9.06055C94.0989 9.06055 97.2696 12.6789 97.2696 17.8584C97.2696 23.038 94.0989 26.6581 89.5544 26.6581ZM5.29648 5.05933L5.27971 5.07413V5.07598C3.60698 6.71034 2.27914 8.65905 1.37373 10.8083C0.468314 12.9576 0.0034783 15.2644 0.00636411 17.5939C0.00106745 21.4449 1.27463 25.1904 3.63004 28.2509C3.65427 28.2805 3.69155 28.2971 3.72511 28.2805C3.75679 28.262 3.75866 28.2231 3.74561 28.1898C2.39419 24.0425 9.30229 13.9904 12.8719 9.77644C12.8831 9.76164 12.898 9.745 12.898 9.72465C12.898 9.7006 12.8812 9.6821 12.8644 9.6673C6.86041 3.73669 5.25734 5.09263 5.27971 5.07413L5.29648 5.05933ZM30.1738 5.05933L30.1906 5.07413V5.07598C31.8632 6.71037 33.1908 8.65913 34.0959 10.8084C35.001 12.9577 35.4654 15.2645 35.4621 17.5939C35.4674 21.4449 34.1938 25.1904 31.8384 28.2509C31.8161 28.2805 31.7769 28.2971 31.7434 28.2805C31.7135 28.262 31.7117 28.2231 31.7229 28.1898C33.0743 24.0425 26.1718 13.983 22.604 9.76719C22.591 9.75239 22.5779 9.73575 22.5779 9.71725C22.5779 9.69135 22.5928 9.67285 22.6115 9.65805C28.6174 3.72744 30.2093 5.09263 30.1888 5.07413L30.1738 5.05933ZM17.7352 0C21.3122 0 24.2555 0.97302 26.9696 2.57499C27.0031 2.59164 27.0124 2.62863 26.9994 2.66193C26.9863 2.69338 26.9491 2.70078 26.9137 2.69153C23.482 1.95529 18.2645 4.8984 17.7724 5.19252C17.7613 5.19992 17.7501 5.20732 17.7352 5.20732C17.7184 5.20732 17.7072 5.19992 17.696 5.19252C16.3875 4.44703 11.5652 1.93864 8.52871 2.71003C8.49516 2.71743 8.45788 2.71188 8.44297 2.67858C8.43661 2.66295 8.43612 2.64557 8.44159 2.62961C8.44707 2.61365 8.45814 2.60017 8.47279 2.59164C11.1868 0.97302 14.1674 0 17.7352 0ZM17.7352 14.1106C17.7557 14.1106 17.778 14.1273 17.7911 14.1384C23.0961 18.1415 32.1758 28.0381 29.404 30.837L29.4077 30.8333L29.4059 30.837H29.4021C26.1753 33.6477 22.0269 35.1952 17.7333 35.1896C13.4393 35.1948 9.29038 33.6474 6.0626 30.837L6.05887 30.8333L6.0626 30.837C3.29638 28.0381 12.3742 18.1415 17.6736 14.1384C17.6886 14.1273 17.7128 14.1106 17.7352 14.1106ZM157.948 7.318V24.6381L145.091 7.30505L142.983 7.30135V28.3896H145.35V11.4524L157.944 28.4026L160.317 28.4063V7.318H157.948ZM130.694 6.82779C124.719 6.82779 120.542 11.3636 120.542 17.8547C120.542 24.3569 124.719 28.8946 130.694 28.8946C136.662 28.8946 140.826 24.3569 140.826 17.8547C140.826 11.3655 136.662 6.82779 130.694 6.82779ZM130.694 26.6581C126.142 26.6581 122.952 23.038 122.952 17.8547C122.952 12.677 126.142 9.05685 130.694 9.05685C135.238 9.05685 138.409 12.677 138.409 17.8547C138.409 23.038 135.238 26.6581 130.694 26.6581ZM165.355 26.3418V18.5392H177.056V16.4747H165.355V9.36578H177.85V7.3032H162.975V28.4063H177.997V26.3418H165.355Z" fill="#FBF503"/>
</g>
<defs>
<clipPath id="clip0_21_311">
<rect width="178" height="35.1878" fill="white"/>
</clipPath>
</defs>
</svg>
