<svg width="62" height="36" viewBox="0 0 62 36" fill="none" xmlns="http://www.w3.org/2000/svg">
<g id="Frame 13">
<g id="PC">
<path d="M2.51562 1.86605H19.1671C21.0022 1.86605 22.6267 2.22916 24.0406 2.9554C25.4546 3.65138 26.5526 4.66508 27.3348 5.99652C28.117 7.29769 28.5081 8.79556 28.5081 10.4901V14.7114C28.5081 16.4664 28.102 18.0248 27.2897 19.3865C26.4774 20.7179 25.3343 21.7619 23.8601 22.5184C22.4161 23.2446 20.7314 23.6078 18.806 23.6078H8.74299V33.6389H2.51562V1.86605ZM18.7158 18.161C19.7687 18.161 20.6261 17.8281 21.288 17.1624C21.9498 16.4664 22.2807 15.5586 22.2807 14.439V10.7624C22.2807 9.70335 21.9799 8.87121 21.3782 8.26601C20.8066 7.63055 20.0395 7.31282 19.0768 7.31282H8.74299V18.161H18.7158Z" fill="#FBF503"/>
<path d="M42.6931 34.002C40.3767 34.002 38.331 33.5027 36.556 32.5042C34.8111 31.5056 33.4574 30.0985 32.4947 28.2829C31.532 26.4371 31.0507 24.3189 31.0507 21.9283V13.5766C31.0507 11.1861 31.532 9.08302 32.4947 7.26743C33.4875 5.42158 34.8713 3.99937 36.6463 3.00079C38.4513 2.00222 40.5271 1.50293 42.8736 1.50293H47.657C49.9133 1.50293 51.8988 1.98709 53.6136 2.9554C55.3284 3.92372 56.652 5.28541 57.5846 7.04048C58.5473 8.7653 59.0287 10.7776 59.0287 13.0773H52.8916C52.8916 11.2617 52.4102 9.80926 51.4475 8.71991C50.4849 7.60029 49.2213 7.04048 47.657 7.04048H42.8736C41.1889 7.04048 39.8352 7.67594 38.8123 8.94686C37.7894 10.1875 37.278 11.8215 37.278 13.849V21.656C37.278 23.6834 37.7744 25.3326 38.7672 26.6035C39.7599 27.8441 41.0686 28.4645 42.6931 28.4645H47.5667C49.1612 28.4645 50.4548 27.8441 51.4475 26.6035C52.4704 25.3628 52.9818 23.7288 52.9818 21.7014H59.1189C59.1189 24.1524 58.6376 26.316 57.6749 28.1921C56.7122 30.038 55.3584 31.4753 53.6136 32.5042C51.8687 33.5027 49.8531 34.002 47.5667 34.002H42.6931Z" fill="#FBF503"/>
</g>
</g>
</svg>
